<!--?xml version="1.0" encoding="utf-8"?-->
<svg version="1.1" x="0px" y="0px" id="iconz0090399306246113306388022" viewBox="0 0 512 512" xmlns="http://www.w3.org/2000/svg" style="enable-background:new 0 0 512 512;" xml:space="preserve"><style type="text/css">
.baseF{fill:#FFFFFF}
.baseB{fill:#232256}
.eyeF{fill:#FFFFFF}
.eyeB{fill:#232256}
.eyeT{fill:#BDC7D6}
.hairF{fill:#FFFFFF}
.hairB{fill:#232256}
.hairU{fill:#5E7AA5}
.hairT{fill:#BDC7D6}
.noseF{fill:#FFFFFF}
.noseB{fill:#232256}
.noseU{fill:#5E7AA5}
.mayugeB{fill:#232256}
.mayugeU{fill:#5E7AA5}
.mayugeT{fill:#BDC7D6}
.mayugeF{fill:#FFFFFF}
.mouthF{fill:#FFFFFF}
.mouthB{fill:#232256}
.mouthT{fill:#BDC7D6}
.mouthU{fill:#5E7AA5}
.hatF{fill:#FFFFFF}
.hatB{fill:#232256}
.hatU{fill:#5E7AA5}
.hatT{fill:#BDC7D6}
.higeU{fill:#5E7AA5}
.higeB{fill:#232256}
.higeF{fill:#FFFFFF}
.bodyF{fill:#FFFFFF}
.bodyB{fill:#232256}
.bodyU{fill:#5E7AA5}
.bodyT{fill:#BDC7D6}
.bodyS{fill:#8DA6C9}
.bodyH{fill:#FFFFFF}
.glassF{fill:#FFFFFF}
.glassB{fill:#232256}
.glassT{fill:#BDC7D6}
.glassU{fill:#5E7AA5}
.kirakiraF{fill:#FFFFFF}
.kirakiraB{fill:#232256}
.kirakiraU{fill:#5E7AA5}
.kirakiraT{fill:#BDC7D6}
.kirakiraH{fill:#FFFFFF}
.backF{fill:#FFFFFF}
.backB{fill:#232256}
.backU{fill:#5E7AA5}
.backS{fill:#8DA6C9}
.backA{fill:#FFE38B}
.backG{fill:#EEEEEF}
.backC{fill:#19DB9F}
.backD{fill:#DBBCA1}
</style>
<g class="icosvg">
<g>
	<path class="baseF" d="M370.823,211.356h-1.084C365.237,142.075,331.823,86.563,256,86.563c-75.822,0-109.237,55.512-113.738,124.793
		h-1.083c-14.838-8.773-36.38,8.076-32.988,28.425c7.12,42.712,9.938,53.302,22.627,59.714c6.478,3.271,12.414,3.389,12.414,3.389
		s15.464,47.059,26.292,62.143c16.545,23.044,57.562,38.925,86.477,38.925c28.915,0,67.346-17.979,86.478-38.925
		c16.936-18.542,26.292-62.143,26.292-62.143s5.937-0.117,12.414-3.389c12.689-6.412,15.507-17.002,22.627-59.714
		C407.202,219.432,385.66,202.583,370.823,211.356z" style="fill: rgb(255, 255, 255);"></path>
	<path class="baseB" d="M406.873,223.086c-5.35-12.449-18.766-21.82-32.415-18.792c-4.694-67.064-45.013-124.712-118.459-123.007
		c-73.304-1.573-113.572,55.337-118.475,123.002c-19.991-4.244-38.214,16.775-34.539,36.36l0-0.002
		c5.777,26.613,4.46,61.69,35.945,67.034c18.918,134.541,215.18,134.612,234.145-0.001c21.089-3.261,27.682-20.847,31.219-40.728
		C405.709,255.619,412.952,236.061,406.873,223.086z M398.605,238.913c-2.73,15.768-4.309,26.734-7.905,39.287
		c-2.379,9.121-7.375,16.064-16.451,18.377c0.572-6.855,0.982-14.618,1.301-23.656c0.102-2.913-2.177-5.356-5.089-5.458
		c-2.913-0.102-5.356,2.176-5.458,5.089l0,0c-1.739,35.552-1.935,49.253-16.799,75.435c-39.392,66.873-145.03,66.862-184.407-0.001
		c-14.704-24.794-15.453-43.736-16.8-75.433c-0.102-2.913-2.546-5.191-5.459-5.089c-2.913,0.102-5.191,2.546-5.089,5.459
		c0.319,9.034,0.731,16.788,1.302,23.645c-14.691-4.021-16.42-17.297-19.707-31.731c-1.417-6.914-2.902-15.432-4.65-25.922
		c-0.681-3.953-0.123-8.089,1.429-11.666c3.533-8.233,12.95-15.39,21.94-12.183c-0.21,4.297-0.318,8.637-0.318,13.013
		c0.03,6.901,10.525,6.901,10.554,0h0c0.126-46.876,12.018-97.922,53.948-122.775c37.434-22.146,102.51-17.619,131.593,17.527
		c24.619,27.817,32.307,66.773,32.458,105.248c-0.024,6.849,10.553,6.933,10.554,0c0-4.377-0.12-8.711-0.33-13.009
		C388.325,210.734,401.161,226.14,398.605,238.913z" style="fill: rgb(35, 34, 86);"></path>
</g>


<g>
	<g>
		<path class="hairB" d="M427.946,379.121c12.193-33.53,15.241-51.82,7.113-87.384c-8.129-35.564-30.893-63.97-30.893-115.838
			c0-61.985-40.613-130.064-148.166-130.064s-148.167,68.079-148.167,130.064c0,51.867-22.763,80.273-30.892,115.838
			c-8.128,35.564-5.08,53.855,7.113,87.384c12.193,33.534-0.544,70.113-0.544,69.098c35.564,7.111,70.631-5.081,80.692-42.677
			c7.126-26.632,4.157-50.203,1.819-61.688c-0.873-4.287-0.655-8.73,0.71-12.888c5.132-15.621,0.101-42.963,0.101-87.602
			c0-50.405,47.514-41.699,89.168-111.328c25.656,76.942,89.167,60.923,89.167,111.328c0,44.639-5.031,71.981,0.101,87.602
			c1.366,4.158,1.584,8.602,0.711,12.888c-2.338,11.484-5.307,35.055,1.819,61.688c10.061,37.596,45.128,49.788,80.692,42.677
			C428.49,449.234,415.753,412.655,427.946,379.121z" style="fill: rgb(35, 34, 86);"></path>
		<g>
			<path class="hairF" d="M389.148,194.513H122.795c-8.262,0-15.021-6.759-15.021-15.019c0-8.262,6.759-15.021,15.021-15.021h266.353
				c8.262,0,15.019,6.759,15.019,15.021C404.167,187.753,397.41,194.513,389.148,194.513z" style="fill: rgb(255, 255, 255);"></path>
			<path class="hairB" d="M389.148,158.473H122.795c-11.603,0.021-20.999,9.417-21.021,21.021c0.022,11.599,9.42,20.995,21.021,21.016
				h266.353c11.602-0.021,20.995-9.42,21.018-21.016C410.143,167.893,400.749,158.494,389.148,158.473z M395.512,185.857
				c-1.662,1.652-3.888,2.653-6.364,2.655H122.795c-2.477-0.002-4.704-1.003-6.367-2.655c-1.655-1.664-2.653-3.891-2.655-6.363
				c0.002-2.477,1.002-4.704,2.655-6.368c1.663-1.652,3.889-2.653,6.367-2.655h266.353c2.476,0.002,4.702,1.003,6.363,2.655
				c1.654,1.662,2.653,3.891,2.655,6.368C398.164,181.969,397.166,184.196,395.512,185.857z" style="fill: rgb(35, 34, 86);"></path>
		</g>
	</g>
</g>


<g>
	<path class="mouthB" d="M297.323,353.945l-6.384-6.919c-0.717-0.778-1.929-0.827-2.707-0.109c-0.778,0.717-0.827,1.93-0.108,2.707
		l1.657,1.794c-0.485,0.192-0.923,0.507-1.209,0.989l-0.005-0.004c-0.066,0.103-1.856,2.971-6.769,5.838
		c-4.917,2.864-12.994,5.764-25.8,5.769c-13.221-0.006-21.398-3.094-26.264-6.046c-2.435-1.48-4.043-2.933-5.03-3.984
		c-0.492-0.525-0.827-0.95-1.031-1.227l-0.206-0.296l-0.035-0.054l-0.002,0.002c-0.288-0.482-0.727-0.797-1.209-0.988l1.655-1.793
		c0.717-0.778,0.67-1.99-0.108-2.708c-0.778-0.717-1.99-0.669-2.707,0.108l-6.389,6.919c-0.717,0.778-0.67,1.99,0.108,2.708
		c0.778,0.717,1.99,0.669,2.707-0.108l1.685-1.826c0.026,0.053,0.026,0.111,0.056,0.163c0.155,0.274,2.302,3.811,7.971,7.255
		c5.667,3.449,14.822,6.762,28.8,6.756c13.978,0.006,23.135-3.307,28.802-6.756c5.67-3.444,7.816-6.981,7.973-7.256
		c0.03-0.05,0.028-0.107,0.054-0.158l1.68,1.821c0.717,0.778,1.929,0.827,2.707,0.109
		C297.993,355.935,298.043,354.722,297.323,353.945z" style="fill: rgb(35, 34, 86);"></path>
</g>


<g>
	<path class="noseB" d="M255.998,310.409c-3.15,0-5.705,1.28-5.705,2.855c0,1.575,2.555,2.85,5.705,2.85s5.705-1.275,5.705-2.85
		C261.703,311.688,259.148,310.409,255.998,310.409z" style="fill: rgb(35, 34, 86);"></path>
</g>


<g>
	<g>
		<g>
			<ellipse class="eyeF" cx="210.448" cy="273.95" rx="16.242" ry="20.068" style="fill: rgb(255, 255, 255);"></ellipse>
			<path class="eyeB" d="M225.181,257.666c-3.304-4.4-8.555-7.276-14.734-7.237c-1.086-0.006-2.101,0.183-3.125,0.349
				c-0.568-1.349-1.066-2.98-1.041-4.487c0-1.299-1.051-2.346-2.346-2.346c-1.297,0-2.346,1.048-2.346,2.346h-0.001
				c0.028,2.177,0.559,4.166,1.199,5.806c-2.372,1.065-4.41,2.623-6.089,4.527c-0.624-0.741-1.107-1.532-1.468-2.27
				c-0.362-0.744-0.599-1.42-0.738-1.893l-0.142-0.535l-0.027-0.121l-0.001-0.006c-0.235-1.335-1.507-2.225-2.839-1.989
				c-1.334,0.234-2.224,1.504-1.989,2.839l-0.001-0.003c0.03,0.152,0.32,1.78,1.332,3.859c0.641,1.31,1.637,2.808,3.018,4.189
				c-2.048,3.87-3.086,8.425-3.09,13.256c0.006,6.147,1.623,11.89,4.961,16.285c3.306,4.4,8.555,7.273,14.735,7.234
				c6.179,0.039,11.428-2.834,14.734-7.234c3.338-4.394,4.955-10.138,4.961-16.285C230.136,267.801,228.519,262.057,225.181,257.666
				z M219.691,286.046c-2.237,2.862-5.108,4.479-9.244,4.518c-4.137-0.039-7.008-1.656-9.245-4.518
				c-2.204-2.87-3.551-7.161-3.545-12.096c-0.006-4.935,1.341-9.225,3.545-12.096c0.561-0.718,1.162-1.358,1.813-1.913
				c-2.446,4.225-2.266,12.082-0.968,16.259c1.346,4.315,6.473,7.845,11.358,7.361c4.196-0.414,8.861-3.037,9.714-11.341
				c0.038,0.577,0.117,1.132,0.117,1.73C223.242,278.885,221.896,283.176,219.691,286.046z" style="fill: rgb(35, 34, 86);"></path>
			<path class="eyeF" d="M206.138,267.325c0-4.639,2.58-7.414,6.051-6.456c3.476,0.963,3.842,6.701,2.13,6.456
				C212.611,267.083,207.726,268.669,206.138,267.325z" style="fill: rgb(255, 255, 255);"></path>
			<path class="eyeF" d="M210.724,278.074c-3.166-1.048-1.515-4.518,1.465-3.91c2.986,0.611,5.549-2.152,5.673-0.099
				S218.121,280.516,210.724,278.074z" style="fill: rgb(255, 255, 255);"></path>
		</g>
		<g>
			<ellipse class="eyeF" cx="302.851" cy="273.95" rx="16.242" ry="20.068" style="fill: rgb(255, 255, 255);"></ellipse>
			<path class="eyeB" d="M317.585,257.666c-3.304-4.4-8.555-7.276-14.734-7.237c-1.086-0.006-2.101,0.183-3.125,0.349
				c-0.568-1.349-1.066-2.98-1.041-4.487c0-1.299-1.051-2.346-2.346-2.346c-1.297,0-2.346,1.048-2.346,2.346h-0.001
				c0.028,2.177,0.559,4.166,1.199,5.806c-2.372,1.065-4.41,2.623-6.089,4.527c-0.624-0.741-1.107-1.532-1.468-2.27
				c-0.362-0.744-0.599-1.42-0.738-1.893l-0.142-0.535l-0.027-0.121l-0.001-0.006c-0.235-1.335-1.507-2.225-2.839-1.989
				c-1.334,0.234-2.224,1.504-1.989,2.839l-0.001-0.003c0.03,0.152,0.32,1.78,1.332,3.859c0.641,1.31,1.637,2.808,3.018,4.189
				c-2.048,3.87-3.086,8.425-3.09,13.256c0.006,6.147,1.623,11.89,4.961,16.285c3.306,4.4,8.555,7.273,14.735,7.234
				c6.179,0.039,11.428-2.834,14.734-7.234c3.338-4.394,4.955-10.138,4.961-16.285C322.54,267.801,320.923,262.057,317.585,257.666z
				 M312.095,286.046c-2.237,2.862-5.108,4.479-9.244,4.518c-4.137-0.039-7.008-1.656-9.245-4.518
				c-2.204-2.87-3.551-7.161-3.545-12.096c-0.006-4.935,1.341-9.225,3.545-12.096c0.561-0.718,1.162-1.358,1.813-1.913
				c-2.446,4.225-2.266,12.082-0.968,16.259c1.346,4.315,6.473,7.845,11.358,7.361c4.196-0.414,8.861-3.037,9.714-11.341
				c0.038,0.577,0.117,1.132,0.117,1.73C315.646,278.885,314.299,283.176,312.095,286.046z" style="fill: rgb(35, 34, 86);"></path>
			<path class="eyeF" d="M298.542,267.325c0-4.639,2.58-7.414,6.051-6.456c3.476,0.963,3.842,6.701,2.13,6.456
				C305.015,267.083,300.13,268.669,298.542,267.325z" style="fill: rgb(255, 255, 255);"></path>
			<path class="eyeF" d="M303.128,278.074c-3.166-1.048-1.516-4.518,1.465-3.91c2.986,0.611,5.549-2.152,5.673-0.099
				C310.389,276.119,310.525,280.516,303.128,278.074z" style="fill: rgb(255, 255, 255);"></path>
		</g>
	</g>
</g>


<g>
	<g>
		<path class="mayugeB" d="M233.86,228.38c-11.696,0.594-30.326,9.32-39.084,15.715c-8.759,6.394-10.778-0.535,2.918-9.32
			s30.224-13.978,37.044-13.147C241.558,222.459,239.203,228.109,233.86,228.38z" style="fill: rgb(35, 34, 86);"></path>
		<path class="mayugeB" d="M278.141,228.38c11.696,0.594,30.326,9.32,39.084,15.715c8.759,6.394,10.778-0.535-2.918-9.32
			c-13.696-8.785-30.224-13.978-37.044-13.147C270.443,222.459,272.798,228.109,278.141,228.38z" style="fill: rgb(35, 34, 86);"></path>
	</g>
</g>


<g>
	<path class="glassB" d="M361.157,254.595h-4.172c-3.523-5.459-8.995-9.912-16.139-12.968c-7.69-3.293-17.257-5.095-28.62-5.098
		c-13.041,0.012-24.907,3.248-33.853,8.803c-3.98,2.48-7.343,5.461-9.952,8.885c-4.472-1.451-8.236-1.725-10.259-1.727
		c-0.511,0-0.893,0.016-1.179,0.033c-0.284-0.016-0.661-0.03-1.155-0.03c-2.027,0.002-5.812,0.277-10.305,1.741
		c-4.076-5.339-9.989-9.602-17.133-12.621c-7.723-3.244-16.842-5.081-26.62-5.084c-15.143,0.009-27.129,3.192-35.667,8.887
		c-3.82,2.559-6.888,5.67-9.148,9.178h-6.113c-1.413,0-2.557,1.144-2.557,2.557v4.39c0,1.2,0.834,2.241,2.009,2.498l2.77,0.607
		c-0.227,1.406-0.382,2.824-0.38,4.263c-0.007,4.861,1.608,9.471,4.308,13.432c4.064,5.955,10.444,10.605,18.155,13.861
		c7.723,3.246,16.842,5.084,26.623,5.086c13.038-0.012,24.905-3.248,33.851-8.803c4.47-2.787,8.222-6.171,10.924-10.144
		c2.7-3.961,4.315-8.571,4.308-13.432c0.002-2.053-0.34-4.048-0.877-5.981c2.599-0.673,4.772-0.841,5.852-0.839l0.609,0.016
		l0.11,0.007v-0.002l0.466,0.047l0.455-0.047l0,0l0.694-0.023c1.076-0.002,3.251,0.169,5.852,0.841
		c-0.534,1.934-0.877,3.928-0.874,5.981c-0.007,4.861,1.608,9.471,4.308,13.432c4.064,5.955,10.444,10.605,18.155,13.861
		c7.723,3.246,16.842,5.084,26.623,5.086c13.038-0.012,24.905-3.248,33.851-8.803c4.47-2.787,8.222-6.171,10.924-10.144
		c2.7-3.961,4.315-8.571,4.308-13.432c0.002-1.582-0.188-3.141-0.462-4.683l0.86-0.188c1.172-0.258,2.006-1.298,2.006-2.498v-4.39
		C363.714,255.739,362.57,254.595,361.157,254.595z M238.602,276.947c-2.655,3.945-7.509,7.716-13.934,10.409
		c-6.412,2.702-14.334,4.338-22.898,4.336c-11.421,0.012-21.696-2.925-28.779-7.355c-3.546-2.205-6.277-4.763-8.055-7.39
		c-1.784-2.639-2.646-5.285-2.653-8.037c0.007-3.005,0.736-5.759,2.215-8.351c2.217-3.87,6.234-7.448,12.434-10.111
		c6.183-2.655,14.496-4.324,24.839-4.322c11.419-0.012,21.694,2.925,28.777,7.352c3.546,2.205,6.277,4.763,8.055,7.39
		c1.784,2.641,2.646,5.285,2.653,8.041C241.248,271.662,240.386,274.308,238.602,276.947z M349.058,276.947
		c-2.655,3.945-7.509,7.716-13.934,10.409c-6.412,2.702-14.334,4.338-22.898,4.336c-11.421,0.012-21.696-2.925-28.779-7.355
		c-3.546-2.205-6.277-4.763-8.055-7.39c-1.784-2.639-2.646-5.285-2.653-8.037c0.007-2.756,0.87-5.4,2.653-8.041
		c2.655-3.942,7.509-7.716,13.934-10.406c6.412-2.702,14.334-4.338,22.901-4.336c13.798-0.009,23.953,2.981,30.323,7.268
		c3.197,2.142,5.463,4.577,6.947,7.165c1.479,2.592,2.208,5.346,2.215,8.351C351.705,271.662,350.842,274.308,349.058,276.947z" style="fill: rgb(35, 34, 86);"></path>
</g>


<g>
	<g>
		<path class="hatF" d="M209.013,129.663c9.698-10.027,35.695-1.786,35.695-1.786s6.898,46.515-45.375,48.553
			C147.059,178.468,209.013,129.663,209.013,129.663z" style="fill: rgb(255, 255, 255);"></path>
		<path class="hatB" d="M209.013,129.663l2.555,2.47c1.277-1.325,3.089-2.311,5.379-2.96c2.278-0.649,4.986-0.933,7.777-0.929
			c4.589-0.004,9.383,0.75,12.979,1.515c1.8,0.382,3.304,0.765,4.346,1.049c0.521,0.142,0.928,0.259,1.199,0.34l0.302,0.09
			l0.084,0.027l1.075-3.388l-3.517,0.518l0.425-0.063l-0.425,0.061v0.002l0.425-0.063l-0.425,0.061
			c0.014,0.104,0.261,1.918,0.26,4.739c0.014,5.715-1.058,15.444-6.703,23.617c-2.825,4.102-6.762,7.875-12.451,10.789
			c-5.689,2.907-13.179,4.951-23.104,5.34c-1.022,0.039-1.998,0.056-2.927,0.056c-6.257,0.02-10.214-0.948-12.139-2.071
			c-0.976-0.558-1.457-1.083-1.754-1.58c-0.291-0.502-0.446-1.05-0.452-1.87c-0.007-1.031,0.314-2.469,1.031-4.136
			c1.238-2.924,3.628-6.459,6.53-9.964c4.35-5.275,9.816-10.534,14.169-14.433c2.177-1.951,4.079-3.566,5.429-4.689
			c0.676-0.562,1.214-1.001,1.581-1.296l0.417-0.335l0.134-0.107l0.193-0.154l0.163-0.168L209.013,129.663l-2.2-2.793
			c-0.067,0.054-7.808,6.146-15.649,14.061c-3.923,3.964-7.874,8.375-10.938,12.825c-1.532,2.23-2.845,4.471-3.812,6.73
			c-0.96,2.259-1.596,4.554-1.603,6.927c-0.006,1.854,0.429,3.777,1.437,5.479c0.75,1.276,1.798,2.398,3.054,3.308
			c1.891,1.371,4.218,2.302,7.003,2.921c2.791,0.616,6.068,0.92,9.962,0.922c1.02,0,2.087-0.02,3.203-0.063
			c10.755-0.418,19.312-2.661,26.064-6.114c10.147-5.167,16.037-13.062,19.207-20.72c3.19-7.671,3.816-15.12,3.821-20.016
			c-0.001-3.448-0.318-5.639-0.337-5.774l-0.326-2.201l-2.116-0.669c-0.081-0.025-2.694-0.852-6.604-1.682
			c-3.914-0.829-9.113-1.669-14.455-1.672c-3.253,0.004-6.566,0.311-9.715,1.2c-3.138,0.888-6.161,2.389-8.551,4.857
			L209.013,129.663l-2.2-2.793L209.013,129.663z" style="fill: rgb(35, 34, 86);"></path>
		<path class="hatF" d="M151.554,171.027c0,0,2.923-51.428,48.909-48.416c13.104,20.702-6.084,35.37-6.084,35.37L151.554,171.027z" style="fill: rgb(255, 255, 255);"></path>
		<path class="hatB" d="M151.554,171.027l3.548,0.202v-0.012c0.015-0.471,0.88-12.229,6.577-23.425
			c2.839-5.606,6.839-11.041,12.425-15.05c5.597-4.002,12.786-6.69,22.536-6.704c1.161,0,2.354,0.036,3.585,0.12l0.238-3.546
			l-3.004,1.901c3.012,4.775,4.016,8.929,4.024,12.591c0.008,5.34-2.255,9.859-4.641,13.106c-1.185,1.615-2.384,2.89-3.266,3.739
			c-0.441,0.425-0.803,0.744-1.043,0.948l-0.265,0.22l-0.054,0.042l0.244,0.311l-0.24-0.313l-0.004,0.002l0.244,0.311l-0.24-0.313
			l2.16,2.824l-1.036-3.401l-42.825,13.046L151.554,171.027l3.548,0.202L151.554,171.027l1.035,3.4l43.437-13.234l0.512-0.389
			c0.176-0.139,3.074-2.362,6.036-6.387c2.944-4.01,6.012-9.93,6.02-17.314c0.008-5.027-1.47-10.631-5.128-16.393l-0.967-1.526
			l-1.799-0.12c-1.392-0.093-2.745-0.136-4.059-0.136c-11.261-0.014-20.216,3.281-27.004,8.272
			c-10.202,7.501-15.51,18.452-18.366,27.388c-2.849,8.961-3.252,16.042-3.267,16.236l-0.291,5.086l4.875-1.484L151.554,171.027z" style="fill: rgb(35, 34, 86);"></path>
		<path class="hatF" d="M147.663,193.796c-10.917-22.486,25.971-44.555,46.716-35.815c1.462,0.615,2.569,1.88,2.932,3.423
			c3.098,13.218-4.444,36.18-26.498,41.418C149.599,209.163,147.663,193.796,147.663,193.796z" style="fill: rgb(255, 255, 255);"></path>
		<path class="hatB" d="M147.663,193.796l3.197-1.553c-1.138-2.351-1.621-4.584-1.623-6.773c0-3.166,1.032-6.319,2.965-9.373
			c2.884-4.573,7.826-8.793,13.581-11.776c5.746-2.998,12.275-4.754,18.134-4.745c3.323-0.001,6.414,0.553,9.081,1.679
			c0.456,0.192,0.766,0.574,0.853,0.962c0.368,1.567,0.57,3.375,0.568,5.323c0.012,5.893-1.877,12.986-5.883,18.94
			c-4.02,5.968-10.005,10.84-18.546,12.884l-0.115,0.027l-0.081,0.025c-3.362,1.005-6.088,1.385-8.264,1.384
			c-2.64-0.004-4.459-0.54-5.807-1.242c-2.003-1.054-3.107-2.588-3.778-3.963c-0.328-0.681-0.53-1.304-0.64-1.727l-0.105-0.463
			l-0.015-0.084l-1.144,0.176l1.148-0.143l-0.005-0.033l-1.144,0.176l1.148-0.143l-0.074-0.584l-0.255-0.525L147.663,193.796
			l-3.527,0.443c0.056,0.334,0.444,3.5,2.872,6.912c1.215,1.695,2.982,3.43,5.414,4.702c2.427,1.277,5.477,2.06,9.108,2.057
			c3-0.001,6.403-0.519,10.3-1.682l-1.017-3.405l0.821,3.457c10.382-2.454,17.977-8.604,22.807-15.841
			c4.846-7.252,7.076-15.552,7.087-22.897c-0.001-2.432-0.247-4.767-0.757-6.948c-0.641-2.701-2.543-4.848-5.014-5.888
			c-3.703-1.561-7.738-2.237-11.841-2.238c-9.655,0.025-19.777,3.67-27.763,9.476c-3.988,2.914-7.443,6.39-9.955,10.349
			c-2.508,3.952-4.071,8.435-4.071,13.179c-0.002,3.268,0.755,6.625,2.338,9.878L147.663,193.796l-3.527,0.443L147.663,193.796z" style="fill: rgb(35, 34, 86);"></path>
		<path class="hatF" d="M179.297,170.306c-11.513,4.397-24.11,12.471-29.843,21.055" style="fill: rgb(255, 255, 255);"></path>
		<path class="hatB" d="M178.345,167.814c-5.96,2.278-12.149,5.48-17.646,9.251c-5.494,3.778-10.304,8.102-13.463,12.814
			c-0.819,1.223-0.489,2.879,0.736,3.698c1.223,0.818,2.879,0.488,3.698-0.736c2.573-3.873,6.928-7.879,12.045-11.381
			c5.113-3.512,10.979-6.546,16.532-8.665c1.375-0.525,2.064-2.066,1.54-3.441c-0.525-1.376-2.066-2.065-3.441-1.54L178.345,167.814
			z" style="fill: rgb(35, 34, 86);"></path>
		<path class="hatF" d="M190.802,134.667c-16.16,11.518-21.312,22.895-21.312,22.895" style="fill: rgb(255, 255, 255);"></path>
		<path class="hatB" d="M189.254,132.495c-16.625,11.85-22.051,23.65-22.193,23.966c-0.608,1.341-0.013,2.921,1.329,3.53
			c1.341,0.607,2.921,0.012,3.53-1.329v-0.004c0.173-0.367,5.224-10.983,20.429-21.821c1.198-0.855,1.478-2.52,0.623-3.717
			c-0.855-1.199-2.52-1.479-3.717-0.623L189.254,132.495z" style="fill: rgb(35, 34, 86);"></path>
		<path class="hatF" d="M225.394,140.415c-12.073,6.318-28.083,20.989-28.083,20.989" style="fill: rgb(255, 255, 255);"></path>
		<path class="hatB" d="M224.158,138.052c-6.34,3.325-13.421,8.64-19.009,13.153c-5.576,4.509-9.612,8.208-9.639,8.232
			c-1.086,0.994-1.16,2.681-0.165,3.768c0.994,1.085,2.681,1.159,3.768,0.165c0-0.002,0.236-0.218,0.689-0.625
			c1.586-1.421,5.753-5.095,10.806-9.077c5.045-3.98,11.01-8.275,16.022-10.893c1.303-0.683,1.808-2.293,1.126-3.596
			c-0.683-1.304-2.293-1.809-3.596-1.126L224.158,138.052z" style="fill: rgb(35, 34, 86);"></path>
		<path class="hatF" d="M118.917,171.268c-0.34-21.287,12.773-38.645,37.898-43.548c7.688,8.411-2.107,31.587-2.107,31.587
			S129.945,183.992,118.917,171.268z" style="fill: rgb(255, 255, 255);"></path>
		<path class="hatB" d="M118.917,171.268l3.81-0.067c-0.005-0.259-0.007-0.506-0.007-0.739c0.011-9.673,2.991-18.185,8.736-24.927
			c5.755-6.731,14.374-11.781,26.088-14.075l-0.729-3.739l-2.814,2.57c0.593,0.648,1.082,1.552,1.426,2.783
			c0.345,1.223,0.521,2.747,0.519,4.426c0.013,4.287-1.154,9.49-2.365,13.505c-0.602,2.013-1.207,3.741-1.658,4.954
			c-0.225,0.606-0.411,1.083-0.539,1.404l-0.145,0.359l-0.042,0.103l3.511,1.484l-2.691-2.7l-0.029,0.028
			c-0.373,0.37-4.257,4.147-9.318,7.73c-2.525,1.792-5.344,3.53-8.088,4.774c-2.742,1.254-5.4,1.973-7.488,1.961
			c-1.118-0.001-2.066-0.184-2.907-0.54c-0.843-0.362-1.61-0.894-2.391-1.787L118.917,171.268l3.81-0.067L118.917,171.268
			l-2.88,2.495c1.478,1.713,3.258,3.004,5.169,3.811c1.911,0.813,3.923,1.15,5.889,1.148c3.823-0.014,7.502-1.195,10.965-2.794
			c5.184-2.415,9.93-5.866,13.465-8.725c3.525-2.859,5.808-5.134,5.873-5.198l0.53-0.529l0.291-0.688
			c0.036-0.088,1.345-3.186,2.666-7.6c1.315-4.425,2.673-10.126,2.686-15.69c-0.002-2.189-0.214-4.371-0.8-6.477
			c-0.586-2.099-1.569-4.152-3.142-5.873l-1.444-1.58l-2.099,0.41c-13.096,2.544-23.43,8.406-30.425,16.605
			c-7.005,8.19-10.574,18.629-10.563,29.877c0,0.3,0.005,0.592,0.009,0.872l0.023,1.383l0.907,1.046L118.917,171.268z" style="fill: rgb(35, 34, 86);"></path>
		<path class="hatF" d="M149.241,139.526c-8.543,10.911-17.873,27.115-17.873,27.115" style="fill: rgb(255, 255, 255);"></path>
		<path class="hatB" d="M147.141,137.882c-8.725,11.154-18.049,27.376-18.084,27.428c-0.736,1.276-0.298,2.906,0.98,3.642
			c1.276,0.735,2.906,0.296,3.642-0.98c-0.001-0.002,0.138-0.244,0.407-0.703c1.869-3.199,9.942-16.768,17.255-26.1
			c0.907-1.16,0.703-2.835-0.456-3.742c-1.16-0.908-2.835-0.704-3.742,0.456L147.141,137.882z" style="fill: rgb(35, 34, 86);"></path>
		<path class="hatF" d="M120.01,215.628c-13.873-19.991-13.205-54.775,30.581-56.084C159.342,171.898,158.313,213.793,120.01,215.628
			z" style="fill: rgb(255, 255, 255);"></path>
		<path class="hatB" d="M120.01,215.628l2.919-2.027c-4.523-6.497-7.38-14.828-7.365-22.62c0-3.559,0.58-7.002,1.808-10.161
			c1.855-4.739,5.1-8.88,10.402-12.067c5.303-3.175,12.761-5.353,22.923-5.657l-0.105-3.552l-2.902,2.054
			c1.017,1.423,2.03,3.697,2.727,6.47c0.704,2.774,1.119,6.043,1.118,9.496c0.009,7.658-2.05,16.14-6.935,22.621
			c-2.445,3.253-5.577,6.041-9.611,8.127c-4.035,2.081-8.996,3.468-15.15,3.765L120.01,215.628l2.919-2.027L120.01,215.628
			l0.17,3.55c7.037-0.335,13.055-1.958,18.07-4.549c7.538-3.882,12.71-9.922,15.896-16.546c3.197-6.635,4.493-13.857,4.498-20.518
			c-0.001-4.017-0.475-7.835-1.338-11.243c-0.871-3.409-2.108-6.41-3.814-8.832l-1.103-1.555l-1.904,0.057
			c-7.376,0.22-13.69,1.352-19.046,3.253c-8.031,2.837-13.903,7.475-17.64,13.111c-3.748,5.63-5.346,12.139-5.344,18.626
			c0.015,9.49,3.339,19.018,8.636,26.673l1.123,1.617l1.968-0.094L120.01,215.628z" style="fill: rgb(35, 34, 86);"></path>
		<path class="hatF" d="M122.665,210.335c4.28-18.8,16.055-35.068,16.055-35.068" style="fill: rgb(255, 255, 255);"></path>
		<path class="hatB" d="M125.264,210.925c2.055-9.048,5.971-17.63,9.376-23.905c1.702-3.139,3.273-5.705,4.413-7.477
			c0.571-0.885,1.032-1.573,1.349-2.034c0.159-0.231,0.281-0.405,0.362-0.519l0.114-0.162c0.863-1.193,0.595-2.858-0.596-3.721
			c-1.193-0.864-2.858-0.596-3.721,0.596c-0.091,0.155-12.035,16.559-16.496,36.039c-0.327,1.436,0.572,2.865,2.009,3.192
			c1.436,0.326,2.865-0.573,3.192-2.009L125.264,210.925z" style="fill: rgb(35, 34, 86);"></path>
		<path class="hatF" d="M305.358,129.663c-9.698-10.027-35.695-1.786-35.695-1.786s-6.898,46.515,45.375,48.553
			C367.313,178.468,305.358,129.663,305.358,129.663z" style="fill: rgb(255, 255, 255);"></path>
		<path class="hatB" d="M305.358,129.663l2.555-2.471c-2.392-2.469-5.415-3.969-8.552-4.857c-3.15-0.889-6.464-1.196-9.716-1.2
			c-5.344,0.004-10.542,0.844-14.455,1.672c-3.908,0.83-6.52,1.657-6.602,1.682l-2.115,0.67l-0.326,2.196
			c-0.019,0.136-0.339,2.329-0.34,5.777c0.014,6.513,1.1,17.626,7.954,27.642c3.424,4.992,8.323,9.649,15.074,13.093
			c6.752,3.452,15.311,5.695,26.065,6.114c1.117,0.043,2.183,0.063,3.203,0.063c6.914-0.02,11.906-0.915,15.638-2.993
			c1.853-1.043,3.376-2.453,4.377-4.159c1.008-1.702,1.443-3.625,1.437-5.479c-0.007-2.373-0.643-4.666-1.602-6.927
			c-1.695-3.947-4.437-7.873-7.584-11.698c-4.723-5.72-10.391-11.154-14.904-15.202c-4.512-4.043-7.863-6.684-7.905-6.717
			L305.358,129.663l2.555-2.471L305.358,129.663l-2.2,2.791l0.319,0.254c1.614,1.294,9.103,7.41,16.073,14.658
			c3.483,3.616,6.832,7.525,9.22,11.146c1.195,1.807,2.148,3.54,2.77,5.075c0.627,1.535,0.907,2.859,0.901,3.826
			c-0.006,0.82-0.162,1.369-0.452,1.87c-0.224,0.377-0.547,0.757-1.11,1.168c-0.834,0.613-2.241,1.263-4.357,1.73
			c-2.112,0.469-4.908,0.755-8.422,0.752c-0.929,0-1.904-0.018-2.927-0.056c-9.923-0.389-17.414-2.433-23.105-5.34
			c-8.515-4.371-13.171-10.676-15.88-17.126c-2.691-6.437-3.279-13.005-3.273-17.28c-0.001-1.504,0.069-2.721,0.138-3.545
			c0.034-0.412,0.067-0.727,0.091-0.928l0.027-0.219l0.006-0.043l-0.321-0.046l0.321,0.048v-0.002l-0.321-0.046l0.321,0.048
			l-3.516-0.521l1.075,3.388l0.083-0.027c0.96-0.308,10.195-3.013,18.824-2.994c2.79-0.004,5.498,0.28,7.778,0.929
			c2.291,0.649,4.103,1.636,5.38,2.96l0.163,0.168l0.193,0.154L305.358,129.663z" style="fill: rgb(35, 34, 86);"></path>
		<path class="hatF" d="M362.817,171.027c0,0-2.923-51.428-48.909-48.416c-13.104,20.702,6.084,35.37,6.084,35.37L362.817,171.027z" style="fill: rgb(255, 255, 255);"></path>
		<path class="hatB" d="M362.817,171.027l3.548-0.203c-0.03-0.26-0.707-12.758-7.032-25.641c-3.171-6.434-7.802-12.997-14.602-17.984
			c-6.789-4.991-15.744-8.286-27.004-8.272c-1.316,0-2.671,0.043-4.059,0.136l-1.8,0.121l-0.964,1.525
			c-3.659,5.761-5.14,11.365-5.132,16.393c0.008,7.385,3.077,13.304,6.022,17.314c2.962,4.024,5.863,6.247,6.038,6.387l0.506,0.387
			l48.316,14.721l-0.289-5.087L362.817,171.027l1.035-3.401l-42.825-13.046l-1.035,3.401l2.159-2.824l-0.176,0.229l0.178-0.226
			l-0.002-0.002l-0.176,0.229l0.178-0.226c-0.136-0.102-2.561-2.044-4.852-5.257c-2.305-3.227-4.426-7.624-4.419-12.799
			c0.008-3.661,1.014-7.814,4.028-12.591l-3.002-1.901l0.238,3.546c1.225-0.083,2.418-0.12,3.582-0.12
			c9.905,0.014,17.167,2.787,22.801,6.898c8.43,6.151,13.216,15.681,15.796,23.81c1.29,4.052,2.033,7.723,2.447,10.354
			c0.207,1.316,0.333,2.373,0.405,3.088c0.036,0.357,0.06,0.63,0.074,0.807l0.014,0.192l0.002,0.042L362.817,171.027l1.035-3.401
			L362.817,171.027z" style="fill: rgb(35, 34, 86);"></path>
		<path class="hatF" d="M366.708,193.796c10.92-22.486-25.971-44.555-46.716-35.815c-1.462,0.615-2.569,1.88-2.932,3.423
			c-3.098,13.218,4.446,36.18,26.498,41.418C364.772,209.163,366.708,193.796,366.708,193.796z" style="fill: rgb(255, 255, 255);"></path>
		<path class="hatB" d="M366.708,193.796l3.197,1.55c1.583-3.254,2.337-6.611,2.334-9.878c0-4.744-1.563-9.229-4.071-13.179
			c-3.776-5.934-9.642-10.8-16.305-14.277c-6.673-3.462-14.171-5.538-21.415-5.548c-4.103,0.001-8.138,0.679-11.839,2.242
			l0.005-0.002c-2.471,1.039-4.373,3.186-5.013,5.885c-0.512,2.18-0.761,4.516-0.762,6.95c0.012,7.345,2.242,15.646,7.087,22.897
			c4.83,7.239,12.427,13.389,22.811,15.841l0.823-3.457l-1.018,3.405c3.895,1.163,7.297,1.68,10.297,1.682
			c3.629,0.004,6.68-0.779,9.107-2.057c3.662-1.916,5.764-4.836,6.882-7.172c1.129-2.352,1.371-4.184,1.407-4.44L366.708,193.796
			l3.197,1.55L366.708,193.796l-3.527-0.445l1.955,0.246l-1.95-0.282l-0.005,0.036l1.955,0.246l-1.95-0.282
			c0,0.001-0.016,0.115-0.067,0.335c-0.175,0.785-0.79,2.679-2.224,4.198c-0.721,0.768-1.632,1.472-2.902,2.018
			c-1.269,0.543-2.919,0.933-5.155,0.934c-2.176,0.001-4.901-0.379-8.262-1.384l-0.094-0.028l-0.102-0.023
			c-8.543-2.044-14.53-6.915-18.55-12.884c-4.005-5.954-5.895-13.046-5.883-18.94c-0.001-1.945,0.203-3.752,0.572-5.324
			c0.087-0.387,0.397-0.769,0.851-0.96l0.005-0.002c2.659-1.125,5.752-1.68,9.073-1.679c7.813-0.025,16.808,3.144,23.572,8.108
			c3.388,2.47,6.217,5.367,8.145,8.413c1.932,3.054,2.965,6.206,2.965,9.373c-0.002,2.193-0.484,4.426-1.62,6.776l-0.257,0.529
			l-0.073,0.578L366.708,193.796z" style="fill: rgb(35, 34, 86);"></path>
		<path class="hatF" d="M335.074,170.306c11.512,4.397,24.112,12.471,29.843,21.055" style="fill: rgb(255, 255, 255);"></path>
		<path class="hatB" d="M334.123,172.796c5.552,2.119,11.419,5.153,16.533,8.665c5.116,3.503,9.471,7.508,12.045,11.38
			c0.817,1.223,2.473,1.554,3.697,0.737c1.223-0.818,1.554-2.474,0.737-3.697c-3.158-4.713-7.969-9.038-13.462-12.816
			c-5.497-3.771-11.687-6.973-17.647-9.251c-1.377-0.525-2.918,0.164-3.442,1.541c-0.525,1.376,0.164,2.917,1.541,3.442
			L334.123,172.796z" style="fill: rgb(35, 34, 86);"></path>
		<path class="hatF" d="M323.569,134.667c16.16,11.518,21.312,22.895,21.312,22.895" style="fill: rgb(255, 255, 255);"></path>
		<path class="hatB" d="M322.021,136.837c7.85,5.596,12.989,11.128,16.153,15.225c1.582,2.048,2.67,3.738,3.353,4.896
			c0.341,0.579,0.582,1.024,0.732,1.316l0.159,0.318l0.032,0.067l0.001,0.002c0.607,1.341,2.187,1.937,3.529,1.33
			c1.341-0.608,1.937-2.188,1.33-3.529c-0.143-0.318-5.569-12.117-22.194-23.967c-1.2-0.855-2.864-0.575-3.718,0.625
			c-0.855,1.199-0.575,2.863,0.625,3.718L322.021,136.837z" style="fill: rgb(35, 34, 86);"></path>
		<path class="hatF" d="M288.977,140.415c12.073,6.318,28.083,20.989,28.083,20.989" style="fill: rgb(255, 255, 255);"></path>
		<path class="hatB" d="M287.741,142.776c5.733,2.993,12.693,8.171,18.128,12.574c2.723,2.203,5.078,4.214,6.748,5.671
			c0.836,0.729,1.499,1.318,1.952,1.725c0.453,0.407,0.689,0.622,0.69,0.623c1.085,0.994,2.771,0.921,3.766-0.164
			c0.994-1.086,0.921-2.773-0.164-3.766c-0.028-0.026-4.064-3.724-9.64-8.234c-5.587-4.513-12.669-9.829-19.009-13.153
			c-1.305-0.683-2.916-0.178-3.598,1.127c-0.683,1.304-0.178,2.914,1.127,3.598L287.741,142.776z" style="fill: rgb(35, 34, 86);"></path>
		<path class="hatF" d="M395.454,171.268c0.34-21.287-12.773-38.645-37.898-43.548c-7.688,8.411,2.107,31.587,2.107,31.587
			S384.427,183.992,395.454,171.268z" style="fill: rgb(255, 255, 255);"></path>
		<path class="hatB" d="M395.454,171.268l3.81,0.049c0.004-0.292,0.006-0.578,0.006-0.855c0.011-11.248-3.559-21.687-10.563-29.877
			c-6.995-8.2-17.329-14.061-30.422-16.605l-2.1-0.41l-1.441,1.579c-1.574,1.721-2.558,3.773-3.144,5.872
			c-0.587,2.107-0.8,4.289-0.803,6.479c0.013,5.564,1.372,11.265,2.688,15.69c1.322,4.414,2.631,7.513,2.667,7.601l0.288,0.683
			l0.532,0.532c0.09,0.087,4.11,4.099,9.783,8.194c2.841,2.047,6.094,4.12,9.554,5.729c3.463,1.598,7.141,2.78,10.965,2.794
			c1.964,0.001,3.975-0.335,5.886-1.148c1.911-0.807,3.69-2.096,5.17-3.807l0.914-1.054l0.019-1.396L395.454,171.268l-2.878-2.5
			c-0.783,0.895-1.553,1.429-2.395,1.791c-0.844,0.357-1.791,0.539-2.906,0.54c-2.156,0.014-4.918-0.756-7.754-2.082
			c-4.263-1.973-8.643-5.106-11.873-7.733c-1.62-1.314-2.96-2.498-3.887-3.348c-0.463-0.424-0.823-0.764-1.063-0.995l-0.268-0.259
			l-0.062-0.061l-0.014-0.014l-2.689,2.7l3.51-1.485l-0.043-0.103c-0.241-0.585-1.445-3.581-2.569-7.482
			c-1.13-3.892-2.152-8.72-2.141-12.737c-0.002-1.678,0.175-3.202,0.519-4.425c0.346-1.232,0.836-2.135,1.429-2.783l-2.811-2.571
			l-0.73,3.739c11.711,2.295,20.329,7.344,26.085,14.075c5.746,6.742,8.726,15.254,8.736,24.927c0,0.255,0,0.509-0.004,0.756
			L395.454,171.268l-2.878-2.5L395.454,171.268z" style="fill: rgb(35, 34, 86);"></path>
		<path class="hatF" d="M365.133,139.526c8.541,10.911,17.871,27.115,17.871,27.115" style="fill: rgb(255, 255, 255);"></path>
		<path class="hatB" d="M363.033,141.169c4.171,5.325,8.609,12.053,11.98,17.423c1.688,2.686,3.11,5.036,4.11,6.711
			c0.5,0.838,0.894,1.507,1.163,1.965c0.268,0.459,0.408,0.701,0.408,0.702c0.734,1.276,2.364,1.714,3.641,0.981
			c1.276-0.735,1.714-2.365,0.981-3.641c-0.036-0.053-9.361-16.275-18.083-27.429c-0.908-1.16-2.584-1.363-3.743-0.455
			c-1.16,0.907-1.363,2.583-0.455,3.743L363.033,141.169z" style="fill: rgb(35, 34, 86);"></path>
		<path class="hatF" d="M394.364,215.628c13.87-19.991,13.202-54.775-30.584-56.084C355.029,171.898,356.058,213.793,394.364,215.628
			z" style="fill: rgb(255, 255, 255);"></path>
		<path class="hatB" d="M394.364,215.628l2.92,2.025c5.295-7.655,8.613-17.182,8.629-26.672c0-4.329-0.707-8.655-2.292-12.737
			c-2.365-6.124-6.776-11.659-13.379-15.594c-6.604-3.947-15.301-6.329-26.355-6.659l-1.905-0.057l-1.1,1.555
			c-1.707,2.421-2.946,5.422-3.818,8.831c-0.864,3.408-1.337,7.226-1.338,11.244c0.009,8.87,2.299,18.786,8.359,26.889
			c3.028,4.039,7.018,7.588,12.036,10.175c5.017,2.592,11.036,4.214,18.074,4.549l1.968,0.094l1.124-1.618L394.364,215.628
			l0.17-3.551c-6.155-0.298-11.119-1.684-15.155-3.765c-6.04-3.127-10.1-7.842-12.756-13.32c-2.645-5.467-3.795-11.693-3.79-17.428
			c-0.001-3.452,0.414-6.722,1.119-9.495c0.697-2.773,1.71-5.047,2.727-6.471l-2.899-2.054l-0.107,3.552
			c6.77,0.202,12.349,1.238,16.879,2.845c6.798,2.426,11.235,6.064,14.099,10.35c2.854,4.29,4.15,9.343,4.152,14.689
			c0.015,7.794-2.839,16.124-7.361,22.621L394.364,215.628l0.17-3.551L394.364,215.628z" style="fill: rgb(35, 34, 86);"></path>
		<path class="hatF" d="M391.706,210.335c-4.28-18.8-16.055-35.068-16.055-35.068" style="fill: rgb(255, 255, 255);"></path>
		<path class="hatB" d="M394.306,209.743c-4.461-19.48-16.405-35.884-16.495-36.04c-0.864-1.193-2.53-1.459-3.722-0.595
			c-1.193,0.862-1.459,2.529-0.595,3.722l0.113,0.161c1.22,1.702,11.658,16.95,15.5,33.935c0.326,1.436,1.754,2.336,3.191,2.01
			c1.436-0.327,2.336-1.755,2.01-3.191L394.306,209.743z" style="fill: rgb(35, 34, 86);"></path>
	</g>
</g>


<g>
	<g>
		<path class="kirakiraB" d="M71.007,91.534c7.113,5.275,14.224,10.552,21.338,15.826c1.597,1.184,3.852,0.85,5.036-0.747
			c1.184-1.597,0.85-3.852-0.747-5.036c-7.113-5.273-14.224-10.549-21.338-15.825c-1.597-1.184-3.852-0.85-5.036,0.747
			C69.076,88.095,69.411,90.35,71.007,91.534L71.007,91.534z" style="fill: rgb(35, 34, 86);"></path>
		<path class="kirakiraB" d="M49.001,75.212c2.736,2.031,5.471,4.058,8.205,6.087c1.596,1.185,3.851,0.851,5.036-0.745
			c1.185-1.597,0.851-3.852-0.745-5.036c-2.737-2.031-5.472-4.058-8.206-6.087c-1.597-1.185-3.852-0.851-5.036,0.746
			C47.071,71.772,47.405,74.027,49.001,75.212L49.001,75.212z" style="fill: rgb(35, 34, 86);"></path>
		<path class="kirakiraB" d="M117.416,62.443c1.825,1.968,3.65,3.939,5.477,5.909c1.352,1.458,3.629,1.544,5.087,0.192
			c1.458-1.352,1.544-3.63,0.192-5.087c-1.825-1.968-3.651-3.939-5.478-5.909c-1.352-1.458-3.63-1.543-5.087-0.191
			C116.15,58.708,116.064,60.986,117.416,62.443L117.416,62.443z" style="fill: rgb(35, 34, 86);"></path>
		<path class="kirakiraB" d="M92.007,35.037c4.959,5.348,9.919,10.697,14.878,16.047c1.351,1.458,3.629,1.545,5.088,0.194
			c1.458-1.352,1.545-3.63,0.194-5.088c-4.961-5.351-9.92-10.7-14.879-16.049c-1.352-1.458-3.63-1.544-5.088-0.192
			C90.741,31.302,90.655,33.58,92.007,35.037L92.007,35.037z" style="fill: rgb(35, 34, 86);"></path>
		<path class="kirakiraB" d="M67.971,156.359c3.672,1.436,7.347,2.875,11.02,4.312c1.851,0.725,3.939-0.189,4.664-2.041
			c0.725-1.852-0.189-3.94-2.04-4.664c-3.673-1.437-7.348-2.876-11.021-4.313c-1.852-0.725-3.94,0.19-4.664,2.041
			C65.206,153.547,66.12,155.635,67.971,156.359L67.971,156.359z" style="fill: rgb(35, 34, 86);"></path>
		<path class="kirakiraB" d="M22.031,138.378c10.528,4.12,21.054,8.241,31.582,12.361c1.851,0.725,3.939-0.188,4.665-2.04
			c0.725-1.852-0.189-3.94-2.04-4.665c-10.529-4.121-21.054-8.241-31.583-12.361c-1.852-0.725-3.94,0.189-4.665,2.041
			C19.266,135.565,20.18,137.653,22.031,138.378L22.031,138.378z" style="fill: rgb(35, 34, 86);"></path>
		<path class="kirakiraB" d="M41.716,216.527c11.302,0,22.605,0,33.907,0c1.987,0,3.599-1.612,3.599-3.6c0-1.988-1.612-3.6-3.599-3.6
			c-11.302-0.001-22.605-0.001-33.907,0c-1.989,0-3.6,1.612-3.6,3.6C38.116,214.915,39.727,216.527,41.716,216.527L41.716,216.527z" style="fill: rgb(35, 34, 86);"></path>
		<path class="kirakiraB" d="M10.591,216.527c3.335,0,6.67,0,10.005,0c1.988,0,3.599-1.612,3.599-3.6c0-1.988-1.612-3.6-3.599-3.6
			c-3.336-0.001-6.67-0.001-10.005,0c-1.989,0-3.6,1.612-3.6,3.6C6.991,214.915,8.602,216.527,10.591,216.527L10.591,216.527z" style="fill: rgb(35, 34, 86);"></path>
		<path class="kirakiraB" d="M54.009,280.744c6.25-1.561,12.502-3.119,18.755-4.678c1.929-0.481,3.103-2.434,2.623-4.363
			c-0.48-1.929-2.434-3.104-4.363-2.623c-6.254,1.558-12.507,3.117-18.759,4.678c-1.929,0.482-3.103,2.436-2.62,4.365
			C50.126,280.053,52.08,281.226,54.009,280.744L54.009,280.744z" style="fill: rgb(35, 34, 86);"></path>
		<path class="kirakiraB" d="M16.822,290.016c7.303-1.821,14.604-3.642,21.905-5.463c1.929-0.481,3.103-2.435,2.622-4.363
			c-0.481-1.929-2.435-3.103-4.363-2.622c-7.301,1.821-14.602,3.642-21.905,5.463c-1.929,0.481-3.103,2.435-2.622,4.364
			C12.939,289.323,14.893,290.497,16.822,290.016L16.822,290.016z" style="fill: rgb(35, 34, 86);"></path>
		<path class="kirakiraB" d="M56.026,347.685c6.022-4.673,12.048-9.344,18.074-14.018c1.571-1.218,1.856-3.48,0.638-5.05
			c-1.218-1.571-3.479-1.857-5.05-0.638c-6.026,4.673-12.052,9.344-18.076,14.018c-1.571,1.219-1.856,3.48-0.638,5.052
			C52.193,348.619,54.455,348.904,56.026,347.685L56.026,347.685z" style="fill: rgb(35, 34, 86);"></path>
		<path class="kirakiraB" d="M35.306,363.752c3.289-2.551,6.574-5.1,9.861-7.647c1.571-1.218,1.859-3.478,0.641-5.05
			c-1.218-1.572-3.478-1.859-5.05-0.641c-3.291,2.549-6.577,5.099-9.865,7.648c-1.571,1.218-1.857,3.48-0.639,5.052
			C31.474,364.685,33.735,364.97,35.306,363.752L35.306,363.752z" style="fill: rgb(35, 34, 86);"></path>
		<path class="kirakiraB" d="M417.018,94.674c-3.104,2.302-6.204,4.603-9.305,6.901c-1.598,1.184-1.934,3.438-0.749,5.036
			c1.184,1.598,3.438,1.933,5.036,0.749c3.104-2.301,6.206-4.603,9.308-6.904c1.597-1.184,1.931-3.439,0.746-5.036
			C420.87,93.824,418.615,93.49,417.018,94.674L417.018,94.674z" style="fill: rgb(35, 34, 86);"></path>
		<path class="kirakiraB" d="M451.054,69.429c-6,4.451-12,8.902-18,13.352c-1.597,1.184-1.931,3.439-0.746,5.037
			c1.184,1.597,3.439,1.931,5.037,0.746c5.999-4.451,11.999-8.902,17.999-13.353c1.597-1.184,1.931-3.439,0.746-5.036
			C454.906,68.579,452.651,68.245,451.054,69.429L451.054,69.429z" style="fill: rgb(35, 34, 86);"></path>
		<path class="kirakiraB" d="M389.365,49.227c-4.396,4.743-8.793,9.485-13.191,14.229c-1.352,1.458-1.266,3.737,0.193,5.088
			c1.458,1.351,3.737,1.265,5.088-0.193c4.396-4.744,8.793-9.485,13.19-14.229c1.351-1.458,1.265-3.736-0.193-5.087
			C392.994,47.683,390.717,47.769,389.365,49.227L389.365,49.227z" style="fill: rgb(35, 34, 86);"></path>
		<path class="kirakiraB" d="M407.061,30.141c-2.288,2.467-4.576,4.935-6.864,7.403c-1.352,1.458-1.266,3.737,0.193,5.088
			c1.458,1.351,3.737,1.265,5.088-0.193c2.287-2.468,4.574-4.936,6.861-7.401c1.352-1.458,1.266-3.735-0.191-5.087
			C410.692,28.598,408.414,28.684,407.061,30.141L407.061,30.141z" style="fill: rgb(35, 34, 86);"></path>
		<path class="kirakiraB" d="M451.988,142.517c-9.753,3.816-19.505,7.634-29.257,11.449c-1.852,0.725-2.766,2.813-2.041,4.665
			c0.724,1.852,2.812,2.765,4.665,2.041c9.752-3.816,19.505-7.634,29.256-11.45c1.851-0.725,2.765-2.812,2.041-4.664
			C455.927,142.707,453.839,141.793,451.988,142.517L451.988,142.517z" style="fill: rgb(35, 34, 86);"></path>
		<path class="kirakiraB" d="M479.689,131.673c-3.671,1.438-7.346,2.875-11.02,4.315c-1.852,0.725-2.764,2.814-2.038,4.666
			c0.725,1.851,2.814,2.764,4.666,2.038c3.67-1.439,7.345-2.875,11.02-4.315c1.851-0.725,2.764-2.814,2.038-4.665
			C483.629,131.861,481.54,130.948,479.689,131.673L479.689,131.673z" style="fill: rgb(35, 34, 86);"></path>
		<path class="kirakiraB" d="M468.276,209.327c-13.184,0-26.368,0-39.553,0c-1.989,0-3.6,1.612-3.6,3.6c0,1.988,1.611,3.6,3.6,3.6
			c13.186,0,26.369,0,39.553,0c1.987,0,3.599-1.612,3.599-3.6C471.875,210.939,470.264,209.327,468.276,209.327L468.276,209.327z" style="fill: rgb(35, 34, 86);"></path>
		<path class="kirakiraB" d="M493.755,209.327c-4.201,0-8.403,0-12.602,0c-1.989,0-3.6,1.612-3.6,3.6c0,1.988,1.611,3.6,3.6,3.6
			c4.2,0,8.402,0,12.602,0c1.987,0,3.599-1.612,3.599-3.6C497.354,210.939,495.742,209.327,493.755,209.327L493.755,209.327z" style="fill: rgb(35, 34, 86);"></path>
		<path class="kirakiraB" d="M442.216,271.297c-2.963-0.738-5.928-1.479-8.892-2.217c-1.93-0.481-3.883,0.694-4.363,2.623
			c-0.481,1.929,0.694,3.883,2.623,4.363c2.961,0.738,5.926,1.478,8.892,2.217c1.929,0.48,3.882-0.694,4.363-2.623
			C445.32,273.731,444.145,271.778,442.216,271.297L442.216,271.297z" style="fill: rgb(35, 34, 86);"></path>
		<path class="kirakiraB" d="M489.266,283.03c-9.188-2.292-18.376-4.582-27.562-6.874c-1.929-0.481-3.884,0.693-4.365,2.622
			c-0.481,1.929,0.693,3.883,2.622,4.364c9.188,2.292,18.375,4.582,27.562,6.874c1.929,0.481,3.883-0.692,4.365-2.621
			C492.369,285.466,491.196,283.512,489.266,283.03L489.266,283.03z" style="fill: rgb(35, 34, 86);"></path>
		<path class="kirakiraB" d="M450.112,339.961c-5.152-3.994-10.303-7.987-15.451-11.982c-1.571-1.219-3.833-0.933-5.051,0.638
			c-1.219,1.571-0.933,3.832,0.637,5.051c5.149,3.997,10.301,7.991,15.453,11.984c1.571,1.218,3.833,0.932,5.051-0.639
			C451.969,343.441,451.683,341.179,450.112,339.961L450.112,339.961z" style="fill: rgb(35, 34, 86);"></path>
		<path class="kirakiraB" d="M473.452,358.062c-3.094-2.4-6.188-4.8-9.281-7.2c-1.571-1.218-3.833-0.933-5.051,0.639
			c-1.219,1.571-0.933,3.832,0.639,5.051c3.093,2.4,6.187,4.8,9.281,7.2c1.571,1.218,3.832,0.933,5.051-0.638
			C475.308,361.542,475.023,359.281,473.452,358.062L473.452,358.062z" style="fill: rgb(35, 34, 86);"></path>
	</g>
</g>

</g></svg>